<svg width="483" height="62" viewBox="0 0 483 62" fill="none" xmlns="http://www.w3.org/2000/svg">
<rect x="0.5" y="0.5" width="482" height="61" rx="7.5" stroke="black" stroke-opacity="0.04"/>
<g clip-path="url(#clip0_888_21235)">
<path d="M38.0618 24.5352C35.2253 24.5352 32.6786 26.0106 32.6786 28.7182C32.6786 31.8364 37.1773 32.0494 37.1773 33.6009C37.1773 34.2549 36.4148 34.8482 35.1338 34.8482C33.3039 34.8482 31.9314 34.0268 31.9314 34.0268L31.3519 36.7647C31.3519 36.7647 32.9226 37.4644 35.0271 37.4644C38.138 37.4644 40.578 35.9281 40.578 33.1598C40.578 29.8742 36.064 29.6612 36.064 28.2162C36.064 27.699 36.6893 27.1362 37.9703 27.1362C39.419 27.1362 40.6085 27.7295 40.6085 27.7295L41.188 25.0827C41.1727 25.0827 39.8765 24.5352 38.0618 24.5352ZM12.0762 24.7329L12 25.1284C12 25.1284 13.1895 25.3413 14.2722 25.7825C15.6599 26.2844 15.7514 26.5734 15.9954 27.4709L18.5421 37.2515H21.9581L27.1887 24.7329H23.788L20.4178 33.251L19.0454 26.0258C18.9234 25.2044 18.2829 24.7329 17.4899 24.7329H12.0762ZM28.5612 24.7329L25.8925 37.2515H29.1407L31.7941 24.7329H28.5612ZM46.6474 24.7329C45.8696 24.7329 45.4579 25.1436 45.1529 25.8737L40.395 37.2515H43.7957L44.4514 35.3501H48.5993L48.9958 37.2515H52L49.3923 24.7329H46.6474ZM47.0896 28.1249L48.0961 32.8251H45.3969L47.0896 28.1249Z" fill="#1434CB"/>
</g>
<path d="M69.308 13.06H70.918L73.858 21.306L76.77 13.06H78.394L74.796 23H72.906L69.308 13.06ZM79.477 15.58H80.961V23H79.477V15.58ZM79.449 14.488V13.074H81.003V14.488H79.449ZM87.1051 17.918C86.9511 17.12 86.2091 16.644 85.4391 16.644C84.6831 16.644 84.0671 17.036 84.0671 17.694C84.0811 18.366 84.9351 18.632 85.7191 18.786C87.5671 19.122 88.7431 19.612 88.7431 21.068C88.7431 22.524 87.2871 23.168 85.7051 23.168C83.8151 23.168 82.4571 22.216 82.3451 20.662L83.8711 20.564C84.0251 21.404 84.6691 21.936 85.6911 21.936C86.3631 21.936 87.2031 21.698 87.2031 20.998C87.1891 20.2 86.2511 20.102 85.4531 19.92C83.8711 19.584 82.5271 19.15 82.5271 17.736C82.5271 16.294 83.7031 15.412 85.5511 15.412C87.1611 15.412 88.3931 16.35 88.6311 17.834L87.1051 17.918ZM89.902 17.806C90.196 16.308 91.372 15.412 93.08 15.412C95.096 15.412 96.202 16.532 96.202 18.562V21.32C96.202 21.698 96.37 21.838 96.664 21.838H96.958V23H96.496C95.824 23.014 94.914 22.902 94.844 21.852C94.508 22.566 93.682 23.168 92.45 23.168C90.952 23.168 89.776 22.37 89.776 21.054C89.776 19.57 90.882 19.136 92.59 18.814L94.718 18.394C94.704 17.204 94.158 16.616 93.08 16.616C92.212 16.616 91.638 17.064 91.442 17.904L89.902 17.806ZM91.316 21.026C91.316 21.572 91.792 22.02 92.772 22.02C93.878 22.006 94.746 21.222 94.746 19.626V19.528L93.164 19.808C92.142 19.99 91.316 20.088 91.316 21.026Z" fill="#3A3A3A"/>
<path d="M70.358 37.6C71.422 37.6 71.884 37.138 71.884 36.06H72.836V46H71.618V38.636H69.56V37.6H70.358ZM75.395 39.028C75.661 37.194 76.963 35.836 78.951 35.836C80.771 35.836 82.115 37.04 82.115 38.664C82.115 40.106 80.967 41.086 79.469 42.024C78.671 42.472 76.753 43.83 76.711 44.824H82.199V46H75.213C75.213 43.032 77.341 41.954 79.035 40.876C80.085 40.204 80.855 39.434 80.855 38.664C80.855 37.698 80.071 37.012 78.951 37.012C77.747 37.012 76.921 37.768 76.655 39.112L75.395 39.028ZM86.9816 40.134C87.9196 40.148 89.0396 39.714 89.0396 38.426C89.0396 37.558 88.2556 37.012 86.9816 37.012C85.9456 37.012 85.2176 37.516 85.0916 38.314L83.8316 38.23C84.0136 36.83 85.3156 35.836 86.9816 35.836C88.9416 35.836 90.3136 36.9 90.3136 38.426C90.3136 39.532 89.6836 40.274 88.4796 40.624C89.8656 41.03 90.6496 41.982 90.6496 43.27C90.6496 45.006 89.1376 46.224 86.9816 46.224C84.9936 46.224 83.5516 45.076 83.4676 43.438L84.7136 43.354C84.8256 44.572 85.9876 45.048 86.9816 45.048C88.1576 45.048 89.3896 44.516 89.3896 43.172C89.3896 41.842 88.1576 41.268 86.9816 41.296L86.2116 41.31V40.12L86.9816 40.134ZM98.4095 36.06V42.78H99.5435V43.956H98.4095V46H97.2055V43.956H92.0535V42.78L97.1215 36.06H98.4095ZM93.5375 42.78H97.2055V37.908L93.5375 42.78ZM109.186 37.922V38.748H107.506L108.36 40.204L107.646 40.624L106.792 39.168L105.952 40.624L105.238 40.204L106.078 38.748H104.398V37.922H106.078L105.238 36.48L105.952 36.06L106.792 37.516L107.646 36.06L108.36 36.48L107.506 37.922H109.186ZM115.284 37.922V38.748H113.604L114.458 40.204L113.744 40.624L112.89 39.168L112.05 40.624L111.336 40.204L112.176 38.748H110.496V37.922H112.176L111.336 36.48L112.05 36.06L112.89 37.516L113.744 36.06L114.458 36.48L113.604 37.922H115.284ZM121.382 37.922V38.748H119.702L120.556 40.204L119.842 40.624L118.988 39.168L118.148 40.624L117.434 40.204L118.274 38.748H116.594V37.922H118.274L117.434 36.48L118.148 36.06L118.988 37.516L119.842 36.06L120.556 36.48L119.702 37.922H121.382ZM127.479 37.922V38.748H125.799L126.653 40.204L125.939 40.624L125.085 39.168L124.245 40.624L123.531 40.204L124.371 38.748H122.691V37.922H124.371L123.531 36.48L124.245 36.06L125.085 37.516L125.939 36.06L126.653 36.48L125.799 37.922H127.479Z" fill="#979797"/>
<defs>
<clipPath id="clip0_888_21235">
<rect width="40" height="12.9293" fill="white" transform="translate(12 24.5352)"/>
</clipPath>
</defs>
</svg>
