<svg width="40" height="13" viewBox="0 0 40 13" fill="none" xmlns="http://www.w3.org/2000/svg">
<g clip-path="url(#clip0_888_21238)">
<path d="M26.0618 0C23.2253 0 20.6786 1.47546 20.6786 4.18301C20.6786 7.30125 25.1773 7.5142 25.1773 9.06572C25.1773 9.71979 24.4148 10.313 23.1338 10.313C21.3039 10.313 19.9314 9.49162 19.9314 9.49162L19.3519 12.2296C19.3519 12.2296 20.9226 12.9293 23.0271 12.9293C26.138 12.9293 28.578 11.393 28.578 8.6246C28.578 5.33904 24.064 5.12608 24.064 3.68105C24.064 3.16387 24.6893 2.60107 25.9703 2.60107C27.419 2.60107 28.6085 3.1943 28.6085 3.1943L29.188 0.547594C29.1727 0.547594 27.8765 0 26.0618 0ZM0.0762486 0.197742L0 0.593226C0 0.593226 1.18948 0.806179 2.27221 1.2473C3.65993 1.74926 3.75143 2.03826 3.99543 2.93571L6.54213 12.7163H9.95806L15.1887 0.197742H11.788L8.41784 8.71586L7.04537 1.49067C6.92337 0.669281 6.28288 0.197742 5.4899 0.197742H0.0762486ZM16.5612 0.197742L13.8925 12.7163H17.1407L19.7941 0.197742H16.5612ZM34.6474 0.197742C33.8696 0.197742 33.4579 0.608437 33.1529 1.33856L28.395 12.7163H31.7957L32.4514 10.815H36.5993L36.9958 12.7163H40L37.3923 0.197742H34.6474ZM35.0896 3.58978L36.0961 8.28996H33.3969L35.0896 3.58978Z" fill="#1434CB"/>
</g>
<defs>
<clipPath id="clip0_888_21238">
<rect width="40" height="12.9293" fill="white"/>
</clipPath>
</defs>
</svg>
